<?xml version="1.0" encoding="utf-8"?><svg xmlns="http://www.w3.org/2000/svg" xmlns:xlink="http://www.w3.org/1999/xlink"><symbol viewBox="0 0 447.243 447.243" id="arrow" xmlns="http://www.w3.org/2000/svg"><path d="M420.361 192.229a31.967 31.967 0 00-5.535-.41H99.305l6.88-3.2a63.998 63.998 0 0018.08-12.8l88.48-88.48c11.653-11.124 13.611-29.019 4.64-42.4-10.441-14.259-30.464-17.355-44.724-6.914a32.018 32.018 0 00-3.276 2.754l-160 160c-12.504 12.49-12.515 32.751-.025 45.255l.025.025 160 160c12.514 12.479 32.775 12.451 45.255-.063a32.084 32.084 0 002.745-3.137c8.971-13.381 7.013-31.276-4.64-42.4l-88.32-88.64a64.002 64.002 0 00-16-11.68l-9.6-4.32h314.24c16.347.607 30.689-10.812 33.76-26.88 2.829-17.445-9.019-33.88-26.464-36.71z"/></symbol><symbol viewBox="0 0 515.8 514.1" id="cancel" xmlns="http://www.w3.org/2000/svg"><path d="M284.3 256L506.1 34.1c7.8-7.8 7.8-20.5 0-28.3-7.8-7.8-20.5-7.8-28.3 0L256 227.7 34.1 5.9C26.3-2 13.7-2 5.9 5.9s-7.8 20.5 0 28.3L227.7 256 5.9 477.9c-7.8 7.8-7.8 20.5 0 28.3 3.9 3.9 9 5.9 14.1 5.9s10.2-2 14.1-5.9L256 284.3l221.9 221.9c3.9 3.9 9 5.9 14.1 5.9s10.2-2 14.1-5.9c7.8-7.8 7.8-20.5 0-28.3L284.3 256z"/></symbol><symbol viewBox="0 0 512 455.5" id="heart" xmlns="http://www.w3.org/2000/svg"><path d="M256 483.5c-7.3 0-14.3-2.6-19.8-7.4C215.5 458 195.6 441 178 426l-.1-.1C126.3 382 81.8 344 50.8 306.6 16.1 264.8 0 225.2 0 181.9 0 139.8 14.4 101 40.6 72.6 67.1 43.8 103.5 28 143 28c29.6 0 56.6 9.3 80.4 27.8 12 9.3 22.9 20.7 32.5 34 9.6-13.3 20.5-24.7 32.5-34 24-18.5 51-27.8 80.6-27.8 39.5 0 75.9 15.8 102.4 44.6C497.6 101 512 139.8 512 181.9c0 43.3-16.1 82.9-50.8 124.7-31 37.4-75.5 75.4-127.1 119.3-17.6 15-37.6 32-58.3 50.2-5.5 4.8-12.5 7.4-19.8 7.4zM143 58c-31 0-59.6 12.4-80.3 34.9-21.1 22.9-32.7 54.4-32.7 89 0 36.4 13.5 69 43.9 105.6 29.3 35.4 73 72.6 123.5 115.6l.1.1c17.7 15.1 37.7 32.1 58.5 50.3 21-18.3 41-35.3 58.7-50.4 50.5-43.1 94.1-80.2 123.5-115.6 30.3-36.6 43.9-69.2 43.9-105.6 0-34.5-11.6-66.1-32.7-89C428.6 70.4 400 58 369 58c-22.8 0-43.7 7.2-62.1 21.5-16.4 12.7-27.9 28.8-34.6 40-3.5 5.8-9.5 9.2-16.3 9.2s-12.8-3.5-16.3-9.2c-6.7-11.3-18.2-27.3-34.6-40C186.7 65.2 165.8 58 143 58z"/></symbol><symbol viewBox="0 0 512 512" id="left-arrow" xmlns="http://www.w3.org/2000/svg"><path d="M492 236H68.442l70.164-69.824c7.829-7.792 7.859-20.455.067-28.284-7.792-7.83-20.456-7.859-28.285-.068l-104.504 104-.018.019c-7.809 7.792-7.834 20.496-.002 28.314l.018.019 104.504 104c7.828 7.79 20.492 7.763 28.285-.068 7.792-7.829 7.762-20.492-.067-28.284L68.442 276H492c11.046 0 20-8.954 20-20s-8.954-20-20-20z"/></symbol><symbol viewBox="0 0 243.2 134.6" id="upload" xmlns="http://www.w3.org/2000/svg"><path d="M129 57.8c-4.7-4.7-12.5-4.7-17.2 0L3.6 165.8c-4.7 4.7-4.7 12.4 0 17.2 4.7 4.7 12.4 4.7 17.2 0l99.7-99.4 99.7 99.4c4.8 4.7 12.4 4.7 17.2 0 4.7-4.7 4.7-12.4 0-17.2L129 57.8z"/></symbol><symbol viewBox="0 0 511.999 511.999" id="view" xmlns="http://www.w3.org/2000/svg"><path d="M508.745 246.041c-4.574-6.257-113.557-153.206-252.748-153.206S7.818 239.784 3.249 246.035a16.896 16.896 0 000 19.923c4.569 6.257 113.557 153.206 252.748 153.206s248.174-146.95 252.748-153.201a16.875 16.875 0 000-19.922zM255.997 385.406c-102.529 0-191.33-97.533-217.617-129.418 26.253-31.913 114.868-129.395 217.617-129.395 102.524 0 191.319 97.516 217.617 129.418-26.253 31.912-114.868 129.395-217.617 129.395z"/><path d="M255.997 154.725c-55.842 0-101.275 45.433-101.275 101.275s45.433 101.275 101.275 101.275S357.272 311.842 357.272 256s-45.433-101.275-101.275-101.275zm0 168.791c-37.23 0-67.516-30.287-67.516-67.516s30.287-67.516 67.516-67.516 67.516 30.287 67.516 67.516-30.286 67.516-67.516 67.516z"/></symbol></svg>