<svg id="Capa_1" enable-background="new 0 0 296.632 296.632" height="512" viewBox="0 0 296.632 296.632" width="512" xmlns="http://www.w3.org/2000/svg"><g><path d="m231.342 103.793c-20.556-80.658-85.437-77.528-85.437-77.528s-64.839-3.13-85.395 77.528c-17.933 70.93 17.722 142.24-45.975 160.173l-2.58 7.063h267.943l-1.776-8.459c-63.697-17.976-28.719-88.102-46.779-159.031" fill="#fcd462"/><path d="m87.03 104.47c-13.535 70.634 26.392 141.648-35.74 159.539l-2.115 7.19h-11.716l2.115-7.19c62.132-17.891 22.205-88.821 35.74-159.539 15.438-80.362 80.023-77.232 80.023-77.232 1.957-.132 3.922-.132 5.879 0-16.199 1.65-61.582 11.589-74.186 77.232z" fill="#fff"/><path d="m278.883 266.505 1.015 4.695zm-60.991-196.421c6.046 10.593 10.574 21.983 13.45 33.837 10.828 42.507 2.58 84.591 7.994 115.636-5.414-30.876 2.834-73.087-7.994-115.636-2.868-11.856-7.396-23.248-13.45-33.837" fill="#64695a"/><path d="m177.923 33.498c11.345 15.602 19.206 33.458 23.051 52.362 18.06 78.543-16.918 156.155 46.821 176.077l2.03 9.094h30.199l-1.015-4.695-.761-3.68c-25.377-7.19-35.19-22.755-38.785-43.395-5.414-30.876 2.834-73.129-7.994-115.636-2.876-11.853-7.404-23.243-13.45-33.836-9.175-16.046-23.218-28.756-40.096-36.291" fill="#fbce5f"/><ellipse cx="148.316" cy="271.199" fill="#dc8744" rx="136.361" ry="11.843"/><path d="m148.316 287.652c-36.543 0-70.93-1.227-96.815-3.468-40.9-3.553-44.157-7.782-44.157-12.985 0-5.202 3.257-9.39 44.157-12.942 25.885-2.242 60.271-3.468 96.815-3.468s70.93 1.227 96.815 3.468c40.9 3.553 44.157 7.782 44.157 12.942s-3.257 9.432-44.157 12.985c-25.885 2.242-60.272 3.468-96.815 3.468zm-125.533-16.622c16.918 3.553 61.498 7.233 125.533 7.233s108.531-3.68 125.533-7.233c-16.918-3.511-61.498-7.233-125.533-7.233s-108.53 3.892-125.533 7.233z" fill="#fcd462"/><path d="m148.316 278.474c-9.39 0-18.399 0-26.9-.254.948 3.388 2.59 6.543 4.822 9.263h22.078 16.918c2.326-2.682 4.031-5.845 4.991-9.263-6.894.212-14.253.254-21.909.254z" fill="#fcd462"/><path d="m171.452 271.03c-.014 2.404-.356 4.794-1.015 7.106-.96 3.418-2.664 6.581-4.991 9.263-8.916 10.814-24.911 12.351-35.724 3.435-4.013-3.309-6.912-7.771-8.305-12.782-.703-2.273-1.046-4.642-1.015-7.021-.027-2.362.301-4.714.973-6.979 8.459 0 17.51-.254 26.942-.254h22.121c.702 2.345 1.045 4.784 1.014 7.232z" fill="#f7be56"/><path d="m145.694 0c-12.567 0-22.755 10.188-22.755 22.755s10.188 22.755 22.755 22.755 22.755-10.188 22.755-22.755c0-12.567-10.188-22.755-22.755-22.755z" fill="#fcd462"/></g></svg>