<svg 
 xmlns="http://www.w3.org/2000/svg"
 xmlns:xlink="http://www.w3.org/1999/xlink"
 width="17px" height="17px">
<defs>
<filter id="Filter_0">
    <feFlood flood-color="rgb(0, 0, 0)" flood-opacity="1" result="floodOut" />
    <feComposite operator="atop" in="floodOut" in2="SourceGraphic" result="compOut" />
    <feBlend mode="normal" in="compOut" in2="SourceGraphic" />
</filter>

</defs>
<g filter="url(#Filter_0)">
<path fill-rule="evenodd"  fill="rgb(204, 204, 204)"
 d="M13.143,16.081 C13.050,16.081 12.953,16.058 12.868,16.015 L8.379,13.712 L3.890,16.015 C3.690,16.117 3.448,16.100 3.267,15.970 C3.086,15.842 2.992,15.623 3.031,15.407 L3.889,10.530 L0.255,7.078 C0.095,6.925 0.036,6.696 0.109,6.487 C0.176,6.279 0.362,6.126 0.587,6.094 L5.604,5.383 L7.848,0.947 C7.948,0.750 8.154,0.626 8.379,0.626 C8.604,0.626 8.811,0.750 8.909,0.947 L11.155,5.383 L16.173,6.094 C16.395,6.126 16.582,6.279 16.650,6.487 C16.720,6.696 16.663,6.925 16.499,7.078 L12.869,10.530 L13.725,15.407 C13.765,15.623 13.672,15.842 13.491,15.970 C13.386,16.043 13.265,16.081 13.143,16.081 ZM1.941,7.068 L4.937,9.917 C5.076,10.050 5.141,10.240 5.106,10.428 L4.401,14.449 L8.104,12.551 C8.275,12.462 8.481,12.462 8.655,12.551 L12.359,14.449 L11.651,10.428 C11.618,10.240 11.681,10.050 11.820,9.917 L14.817,7.068 L10.675,6.481 C10.483,6.454 10.318,6.335 10.231,6.166 L8.379,2.506 L6.527,6.166 C6.441,6.335 6.274,6.454 6.081,6.481 L1.941,7.068 Z"/>
</g>
</svg>