<svg 
 xmlns="http://www.w3.org/2000/svg"
 xmlns:xlink="http://www.w3.org/1999/xlink"
 width="14px" height="13px">
<defs>
<filter id="Filter_0">
    <feFlood flood-color="rgb(252, 97, 32)" flood-opacity="1" result="floodOut" />
    <feComposite operator="atop" in="floodOut" in2="SourceGraphic" result="compOut" />
    <feBlend mode="normal" in="compOut" in2="SourceGraphic" />
</filter>

</defs>
<g filter="url(#Filter_0)">
<path fill-rule="evenodd"  fill="rgb(0, 0, 0)"
 d="M7.040,12.998 C3.454,12.989 0.549,10.065 0.557,6.481 C0.567,2.897 3.493,-0.011 7.076,-0.001 C10.658,0.008 13.568,2.932 13.559,6.516 C13.547,10.100 10.624,13.008 7.040,12.998 ZM7.071,1.624 C4.384,1.616 2.189,3.797 2.183,6.485 C2.174,9.173 4.356,11.367 7.043,11.374 C9.732,11.381 11.925,9.200 11.932,6.512 C11.941,3.823 9.759,1.631 7.071,1.624 ZM9.405,7.287 L4.527,7.274 C4.080,7.273 3.717,6.908 3.718,6.459 C3.720,6.010 4.084,5.648 4.535,5.649 L9.409,5.662 C9.858,5.663 10.220,6.028 10.218,6.477 C10.217,6.926 9.853,7.289 9.405,7.287 Z"/>
</g>
</svg>