<svg 
 xmlns="http://www.w3.org/2000/svg"
 xmlns:xlink="http://www.w3.org/1999/xlink"
 width="20px" height="18px">
<path fill-rule="evenodd"  fill="rgb(29, 175, 229)"
 d="M19.771,9.411 L19.558,9.623 L11.678,17.567 C11.335,17.907 10.871,17.999 10.643,17.773 L10.229,17.361 C10.000,17.134 10.093,16.673 10.436,16.333 L16.718,10.000 L0.500,10.000 C0.224,10.000 -0.000,9.776 -0.000,9.500 L-0.000,8.500 C-0.000,8.224 0.224,8.000 0.500,8.000 L16.719,8.000 L10.436,1.666 C10.093,1.326 10.000,0.866 10.229,0.638 L10.643,0.226 C10.871,-0.001 11.335,0.092 11.678,0.432 L19.564,8.383 C19.565,8.383 19.565,8.383 19.565,8.384 L19.771,8.588 C19.873,8.689 19.901,8.838 19.883,9.000 C19.901,9.161 19.873,9.311 19.771,9.411 Z"/>
</svg>