<svg 
 xmlns="http://www.w3.org/2000/svg"
 xmlns:xlink="http://www.w3.org/1999/xlink"
 width="23px" height="23px">
<path fill-rule="evenodd"  opacity="0.631" fill="rgb(255, 255, 255)"
 d="M22.154,20.680 C21.502,21.521 20.608,22.674 18.112,22.978 C18.069,22.983 17.910,22.999 17.645,22.999 C16.372,22.999 11.803,22.568 6.451,17.007 C1.660,12.024 -0.000,8.496 0.722,4.829 C1.238,2.210 2.622,0.940 2.898,0.709 C3.354,0.251 3.948,0.000 4.576,0.000 C5.195,0.000 5.773,0.247 6.203,0.695 L9.415,4.034 C10.322,4.976 10.303,6.531 9.372,7.501 L8.121,8.801 C8.664,9.816 9.407,11.155 10.746,12.548 C12.087,13.942 13.378,14.713 14.350,15.274 L15.600,13.975 C16.059,13.498 16.665,13.235 17.308,13.235 C17.925,13.235 18.503,13.481 18.934,13.927 L22.147,17.268 C22.997,18.155 23.000,19.589 22.154,20.680 ZM21.170,18.280 L17.960,14.942 C17.790,14.767 17.558,14.668 17.308,14.668 C17.034,14.668 16.774,14.782 16.575,14.988 L15.247,16.369 C15.028,16.628 14.732,16.769 14.410,16.769 C14.136,16.769 13.919,16.666 13.813,16.604 C12.758,15.996 11.311,15.162 9.770,13.561 C8.225,11.954 7.422,10.448 6.835,9.348 C6.632,8.976 6.589,8.405 6.958,7.983 L6.981,7.957 L8.397,6.487 C8.790,6.077 8.809,5.432 8.440,5.048 L5.227,1.708 C5.057,1.531 4.826,1.433 4.576,1.433 C4.302,1.433 4.041,1.547 3.842,1.754 L3.806,1.793 L3.765,1.824 C3.718,1.861 2.523,2.832 2.074,5.117 C1.457,8.247 3.008,11.398 7.426,15.992 C12.403,21.165 16.506,21.566 17.645,21.566 C17.845,21.566 17.951,21.554 17.952,21.554 C19.888,21.318 20.467,20.571 21.081,19.780 C21.410,19.356 21.578,18.706 21.170,18.280 ZM20.173,9.781 C20.147,9.783 20.122,9.785 20.097,9.785 C19.750,9.785 19.451,9.513 19.413,9.145 C19.283,7.899 18.563,6.435 17.580,5.413 C16.606,4.400 15.211,3.654 14.026,3.512 C13.647,3.467 13.376,3.111 13.420,2.718 C13.463,2.326 13.805,2.042 14.183,2.088 C15.681,2.268 17.356,3.153 18.555,4.399 C19.766,5.657 20.620,7.417 20.784,8.990 C20.825,9.384 20.551,9.738 20.173,9.781 ZM16.465,6.677 C17.140,7.377 17.874,8.599 17.994,9.749 C18.035,10.143 17.761,10.496 17.382,10.539 C17.357,10.542 17.332,10.543 17.307,10.543 C16.960,10.543 16.661,10.271 16.623,9.904 C16.552,9.230 16.076,8.299 15.490,7.690 C14.909,7.086 14.022,6.593 13.382,6.515 C13.003,6.470 12.732,6.114 12.775,5.721 C12.819,5.328 13.160,5.045 13.539,5.091 C14.633,5.222 15.797,5.981 16.465,6.677 Z"/>
</svg>