<?xml version="1.0" encoding="iso-8859-1"?>
<!-- Generator: Adobe Illustrator 19.0.0, SVG Export Plug-In . SVG Version: 6.00 Build 0)  -->
<svg version="1.1" id="Layer_1" xmlns="http://www.w3.org/2000/svg" xmlns:xlink="http://www.w3.org/1999/xlink" x="0px" y="0px"
	 viewBox="0 0 330.01 330.01" style="enable-background:new 0 0 330.01 330.01;" xml:space="preserve">
<path fill="#373737" id="XMLID_236_" d="M308.078,55.614c-14.165-14.166-32.999-21.967-53.032-21.967c-20.033,0-38.867,7.801-53.033,21.967
	L83.786,173.84c-17.545,17.545-17.545,46.093,0.001,63.64c17.546,17.545,46.095,17.544,63.64-0.002l77.85-77.85
	c5.858-5.858,5.858-15.355,0-21.213c-5.857-5.858-15.355-5.858-21.213,0l-77.85,77.85c-5.848,5.85-15.365,5.849-21.214,0.001
	c-5.849-5.849-5.849-15.366-0.001-21.214L223.226,76.828c8.5-8.499,19.8-13.18,31.82-13.18c12.02,0,23.32,4.681,31.819,13.18
	c17.545,17.546,17.546,46.094,0.002,63.64L158.034,269.298c-29.244,29.242-76.825,29.241-106.066,0
	C37.802,255.133,30,236.299,30,216.266s7.802-38.868,21.968-53.034l128.83-128.832c5.858-5.858,5.858-15.355,0-21.213
	c-5.857-5.857-15.355-5.858-21.213,0L30.755,142.019C10.922,161.851,0,188.219,0,216.266s10.922,54.415,30.755,74.246
	c20.472,20.472,47.354,30.707,74.245,30.704c26.885-0.002,53.779-10.237,74.247-30.704L308.08,161.68
	C337.321,132.437,337.32,84.857,308.078,55.614z"/>
</svg>
