<svg 
 xmlns="http://www.w3.org/2000/svg"
 xmlns:xlink="http://www.w3.org/1999/xlink"
 width="20px" height="13px">
<defs>
<filter id="Filter_0">
    <feFlood flood-color="rgb(255, 255, 255)" flood-opacity="1" result="floodOut" />
    <feComposite operator="atop" in="floodOut" in2="SourceGraphic" result="compOut" />
    <feBlend mode="normal" in="compOut" in2="SourceGraphic" />
</filter>

</defs>
<g filter="url(#Filter_0)">
<path fill-rule="evenodd"  fill="rgb(33, 177, 217)"
 d="M19.279,7.443 C18.839,8.062 18.194,8.804 17.309,9.637 C15.545,11.296 13.808,12.339 12.091,12.774 C11.494,12.925 10.884,12.988 10.264,12.988 C9.625,12.988 9.004,12.925 8.407,12.774 C6.710,12.342 4.977,11.291 3.209,9.637 C2.378,8.859 1.716,8.135 1.219,7.443 C0.802,6.860 0.802,6.093 1.219,5.510 C1.400,5.258 1.603,5.008 1.839,4.735 C3.055,3.327 4.338,2.189 5.706,1.361 C6.703,0.758 7.693,0.354 8.660,0.145 C9.236,0.020 9.777,-0.010 10.264,-0.010 C10.731,-0.010 11.261,0.024 11.838,0.145 C12.794,0.346 13.784,0.749 14.792,1.361 C16.200,2.216 17.473,3.363 18.659,4.735 C18.864,4.973 19.077,5.233 19.279,5.510 C19.707,6.104 19.702,6.845 19.279,7.443 ZM18.426,6.370 C18.318,6.211 18.131,5.976 17.868,5.666 C16.721,4.318 15.531,3.298 14.294,2.566 C13.338,1.999 12.457,1.621 11.655,1.456 C11.178,1.358 10.721,1.314 10.264,1.314 C9.787,1.314 9.321,1.365 8.863,1.456 C8.072,1.615 7.194,1.994 6.224,2.566 C5.011,3.281 3.808,4.306 2.630,5.666 C2.580,5.738 2.486,5.854 2.356,6.012 C2.232,6.164 2.143,6.286 2.092,6.370 C2.022,6.453 2.022,6.524 2.092,6.584 C2.529,7.216 3.132,7.893 3.899,8.612 C5.528,10.135 7.116,11.087 8.660,11.474 C9.217,11.612 9.736,11.665 10.234,11.665 L10.264,11.665 C10.752,11.665 11.281,11.614 11.858,11.474 C13.423,11.090 14.997,10.114 16.599,8.612 C17.362,7.895 17.979,7.229 18.426,6.584 C18.477,6.524 18.481,6.450 18.426,6.370 ZM10.264,9.904 C9.280,9.904 8.425,9.574 7.726,8.908 C7.023,8.238 6.681,7.435 6.681,6.489 C6.681,5.543 7.026,4.733 7.726,4.060 C8.427,3.386 9.280,3.054 10.264,3.054 C11.249,3.054 12.079,3.388 12.772,4.060 C13.470,4.735 13.817,5.543 13.817,6.489 C13.817,7.435 13.472,8.235 12.772,8.908 C12.081,9.572 11.249,9.904 10.264,9.904 ZM11.980,4.830 C11.510,4.374 10.944,4.137 10.264,4.137 C9.584,4.137 9.006,4.372 8.528,4.830 C8.051,5.288 7.808,5.836 7.808,6.489 C7.808,7.123 8.051,7.679 8.528,8.137 C9.006,8.596 9.584,8.830 10.264,8.830 C10.934,8.830 11.503,8.606 11.980,8.147 C12.457,7.688 12.691,7.132 12.691,6.489 C12.691,5.836 12.455,5.291 11.980,4.830 Z"/>
</g>
</svg>