<?xml version="1.0" encoding="utf-8"?>
<!-- Generator: Adobe Illustrator 24.0.2, SVG Export Plug-In . SVG Version: 6.00 Build 0)  -->
<svg version="1.1" id="Layer_1" xmlns="http://www.w3.org/2000/svg" xmlns:xlink="http://www.w3.org/1999/xlink" x="0px" y="0px"
	 viewBox="0 0 205.3 68.2" style="enable-background:new 0 0 205.3 68.2;" xml:space="preserve">
<style type="text/css">
	.st0{fill:#86C547;}
	.st1{fill:#0CAEE5;}
	.st2{fill:#FFFFFF;}
</style>
<path class="st0" d="M36.9,41.5h-6.4v-41h6.4V41.5z"/>
<path class="st1" d="M48.7,41.5h-6.4v-41h6.4V41.5z"/>
<path class="st2" d="M25.5,35V22.3c0-3.2-1-5.6-3-7.2c-2-1.7-4.7-2.5-8-2.5c-3.4,0-6.2,0.9-8.3,2.6c-2.1,1.7-3.1,3.7-3,6l0,0.2h6.1
	c0-1.1,0.4-2,1.3-2.7s2-1.1,3.5-1.1c1.6,0,2.9,0.4,3.8,1.3c0.9,0.8,1.3,2,1.3,3.5v2.5h-5c-3.9,0-7,0.8-9.2,2.3
	c-2.2,1.5-3.3,3.7-3.3,6.4c0,2.7,0.8,4.8,2.4,6.3c1.6,1.5,3.9,2.3,6.8,2.3c1.8,0,3.4-0.5,4.8-1.4s2.6-2,3.5-3.3
	c0.1,0.7,0.2,1.4,0.3,2c0.1,0.7,0.3,1.4,0.6,2.1h6.5c-0.4-1-0.6-2.1-0.8-3.2C25.6,37.3,25.5,36.2,25.5,35z M19.1,33
	c-0.4,1-1.3,2-2.6,2.8c-1.3,0.8-2.7,1.2-4.3,1.2c-1.3,0-2.3-0.3-3-1c-0.7-0.6-1.1-1.5-1.1-2.6c0-1.2,0.5-2.3,1.6-3.2
	c1.1-0.9,2.5-1.4,4.4-1.4h5.1V33z M67.6,12.2c-1.7,0-3.1,0.3-4.4,1C62,13.8,60.9,14.8,60,16V0.2h-6v41h5l0.6-3.7
	c0.9,1.4,2,2.4,3.3,3.2c1.3,0.7,2.9,1.1,4.7,1.1c3.6,0,6.4-1.3,8.4-3.8c2-2.5,3-5.9,3-10v-0.6c0-4.6-1-8.2-3-11
	C74.1,13.6,71.2,12.2,67.6,12.2z M72,28.2c0,2.6-0.5,4.7-1.5,6.2c-1,1.5-2.6,2.3-4.7,2.3c-1.4,0-2.6-0.3-3.6-0.9
	c-0.9-0.6-1.7-1.5-2.2-2.6V21.5c0.6-1.1,1.3-2,2.2-2.6c0.9-0.6,2.1-0.9,3.5-0.9c2.2,0,3.8,0.9,4.8,2.7c1,1.8,1.5,4.1,1.5,7.1V28.2z
	 M88.6,20.3c1-1.7,2.7-2.6,5.1-2.6c1.6,0,3,0.5,4,1.6c1,1.1,1.5,2.4,1.5,4h5.8l0.1-0.2c0.1-3.1-1-5.6-3.1-7.6c-2.1-2-4.9-3-8.3-3
	c-4.2,0-7.4,1.4-9.6,4.1c-2.2,2.7-3.3,6.1-3.3,10.2v0.9c0,4.1,1.1,7.5,3.3,10.2c2.2,2.7,5.4,4,9.6,4c3.2,0,5.9-1,8.1-2.9
	c2.2-1.9,3.3-4.2,3.2-6.9l-0.1-0.2h-5.8c0,1.4-0.5,2.5-1.6,3.4c-1.1,0.9-2.4,1.4-3.9,1.4c-2.4,0-4.1-0.9-5.1-2.6
	c-1-1.7-1.5-3.9-1.5-6.6v-0.9C87.1,24.2,87.6,22,88.6,20.3z M108.7,41.5h6.4v-6.1h-6.4V41.5z M121.3,6.1h6.4V0.6h-6.4V6.1z
	 M121.3,41.5h6.4V13.1h-6.4V41.5z M147.1,12.6c-1.8,0-3.4,0.4-4.8,1.2s-2.6,1.9-3.5,3.4l-0.4-4.1h-5.8v28.4h6.4V20.9
	c0.6-1,1.4-1.7,2.4-2.3c1-0.6,2.1-0.8,3.3-0.8c1.8,0,3.1,0.5,4,1.4c0.9,0.9,1.3,2.4,1.3,4.6v17.8h6.4V23.7c0-3.8-0.8-6.6-2.5-8.4
	S150.1,12.6,147.1,12.6z M170.5,6.4c0.7-0.8,1.7-1.2,3.1-1.2c0.5,0,0.9,0,1.4,0.1c0.4,0.1,0.8,0.1,1.2,0.2l0.7-4.9
	c-0.8-0.2-1.5-0.3-2.1-0.4C174.1,0,173.4,0,172.8,0c-3.1,0-5.5,0.8-7.2,2.5c-1.7,1.7-2.6,4.1-2.6,7.2v3.3h-4.3v4.7h4.3v23.7h6.4
	V17.8h5.8v-4.7h-5.8V9.8C169.5,8.3,169.8,7.2,170.5,6.4z M199.1,16.6c-2.3-2.7-5.5-4.1-9.6-4.1c-4,0-7.2,1.4-9.5,4.1
	c-2.3,2.7-3.5,6.2-3.5,10.4v0.6c0,4.3,1.2,7.7,3.5,10.4c2.3,2.7,5.5,4,9.6,4c4,0,7.2-1.3,9.5-4c2.3-2.7,3.5-6.2,3.5-10.5V27
	C202.6,22.8,201.5,19.3,199.1,16.6z M196.3,27.6c0,2.8-0.6,5-1.7,6.8c-1.1,1.7-2.8,2.6-5,2.6c-2.3,0-4-0.9-5-2.6
	c-1.1-1.7-1.6-4-1.6-6.8V27c0-2.7,0.5-4.9,1.6-6.7c1.1-1.8,2.8-2.6,5-2.6c2.3,0,3.9,0.9,5,2.6c1.1,1.7,1.7,4,1.7,6.7V27.6z"/>
<path class="st2" d="M7.3,56.4c0.6-0.2,1-0.5,1.4-0.9s0.5-0.9,0.5-1.4c0-1.1-0.4-1.9-1.1-2.5c-0.7-0.5-1.7-0.8-3-0.8h-4v12.2h4.5
	c1.2,0,2.2-0.3,2.9-0.9s1.1-1.4,1.1-2.6c0-0.7-0.2-1.4-0.6-2C8.6,56.9,8,56.6,7.3,56.4z M2.8,52h2.3c0.8,0,1.4,0.2,1.8,0.5
	c0.4,0.3,0.6,0.8,0.6,1.5c0,0.6-0.2,1.1-0.6,1.4c-0.4,0.3-0.9,0.5-1.5,0.5H2.8V52z M7.3,61.1c-0.4,0.4-1,0.6-1.7,0.6H2.8v-4.4h3.1
	c0.7,0,1.3,0.2,1.6,0.6c0.3,0.4,0.5,1,0.5,1.7C8,60.2,7.8,60.7,7.3,61.1z M13.6,55.9c0.4-0.6,1-0.9,1.8-0.9c0.6,0,1.1,0.2,1.5,0.6
	c0.4,0.4,0.6,0.9,0.6,1.4h1.5l0,0c0-0.9-0.3-1.7-1-2.3c-0.7-0.6-1.5-0.9-2.6-0.9c-1.3,0-2.3,0.4-3,1.3c-0.7,0.9-1,1.9-1,3.2v0.4
	c0,1.3,0.3,2.4,1,3.2c0.7,0.9,1.7,1.3,3,1.3c1,0,1.8-0.3,2.5-0.9c0.7-0.6,1.1-1.3,1-2.1l0,0h-1.5c0,0.5-0.2,0.9-0.6,1.2
	c-0.4,0.3-0.9,0.5-1.4,0.5c-0.9,0-1.5-0.3-1.9-0.9S13,59.5,13,58.6v-0.3C13,57.3,13.2,56.5,13.6,55.9z M24.3,53.7
	c-1,0-2,0.4-2.7,1.3c-0.8,0.9-1.1,1.9-1.1,3.2v0.4c0,1.3,0.4,2.4,1.1,3.3s1.7,1.3,3,1.3c0.8,0,1.4-0.1,1.9-0.3s1-0.5,1.3-0.8
	l-0.6-1.1c-0.3,0.3-0.7,0.5-1.1,0.7c-0.4,0.2-0.9,0.2-1.5,0.2c-0.8,0-1.4-0.3-1.8-0.8s-0.6-1.3-0.7-2.1l0,0H28v-1
	c0-1.2-0.3-2.2-0.9-2.9C26.4,54.1,25.5,53.7,24.3,53.7z M26.4,57.5h-4.2l0,0c0.1-0.7,0.3-1.3,0.7-1.7s0.9-0.7,1.4-0.7
	c0.7,0,1.2,0.2,1.5,0.6c0.3,0.4,0.5,1,0.5,1.6V57.5z M38.1,54.4c-0.6,0-1.1,0.1-1.6,0.3c-0.5,0.2-0.9,0.5-1.2,0.9l0,0
	c0.1-0.9,0.5-1.6,1-2c0.5-0.5,1.2-0.7,1.9-0.9c1-0.2,1.8-0.4,2.3-0.7c0.5-0.3,0.7-0.9,0.7-1.9l0,0h-1.3c0,0.4-0.2,0.7-0.5,0.9
	s-0.8,0.3-1.5,0.5c-1.3,0.3-2.3,0.9-3,2c-0.7,1.1-1.1,2.5-1.1,4.3v1.2c0,1.3,0.4,2.4,1.1,3.2c0.7,0.8,1.7,1.2,3,1.2
	c1.2,0,2.2-0.4,3-1.2c0.7-0.8,1.1-1.9,1.1-3.2v-0.2c0-1.2-0.3-2.2-1-2.9C40.1,54.8,39.2,54.4,38.1,54.4z M40.2,58.7
	c0,0.9-0.2,1.7-0.6,2.2c-0.4,0.6-1,0.9-1.8,0.9c-0.8,0-1.4-0.3-1.8-0.9c-0.4-0.6-0.6-1.3-0.6-2.2v-0.2c0-0.8,0.2-1.5,0.6-2
	c0.4-0.5,1-0.8,1.8-0.8c0.8,0,1.4,0.3,1.8,0.8c0.4,0.5,0.6,1.2,0.6,2V58.7z M45.1,60.3L45.1,60.3L45,53.9h-1.6v9H45l4-6.4l0,0v6.4
	h1.6v-9h-1.6L45.1,60.3z M58.2,58.3c0.4-0.2,0.8-0.5,1-0.8c0.2-0.3,0.4-0.7,0.4-1.1c0-0.8-0.3-1.5-0.9-1.9c-0.6-0.5-1.4-0.7-2.5-0.7
	c-1,0-1.8,0.2-2.5,0.7c-0.7,0.5-1,1.1-0.9,1.9l0,0h1.6c0-0.4,0.2-0.7,0.5-1c0.4-0.3,0.8-0.4,1.3-0.4c0.6,0,1,0.1,1.3,0.4
	s0.4,0.6,0.4,1c0,0.4-0.1,0.7-0.4,1c-0.3,0.2-0.7,0.3-1.2,0.3h-1.6V59h1.6c0.6,0,1.1,0.1,1.3,0.3s0.4,0.6,0.4,1.1
	c0,0.4-0.2,0.8-0.5,1c-0.3,0.3-0.8,0.4-1.4,0.4c-0.6,0-1.1-0.2-1.4-0.5s-0.6-0.7-0.6-1.1h-1.6l0,0.1c0,0.9,0.3,1.6,1,2.1
	c0.7,0.5,1.5,0.7,2.5,0.7c1.1,0,1.9-0.2,2.6-0.7s1-1.1,1-2c0-0.5-0.1-0.9-0.4-1.3C59.1,58.7,58.7,58.4,58.2,58.3z M67.5,57.8h-4
	v-3.9h-1.6v9h1.6v-3.8h4v3.8h1.6v-9h-1.6V57.8z M75,53.7c-1,0-2,0.4-2.7,1.3c-0.8,0.9-1.1,1.9-1.1,3.2v0.4c0,1.3,0.4,2.4,1.1,3.3
	s1.7,1.3,3,1.3c0.8,0,1.4-0.1,1.9-0.3s1-0.5,1.3-0.8l-0.6-1.1c-0.3,0.3-0.7,0.5-1.1,0.7c-0.4,0.2-0.9,0.2-1.5,0.2
	c-0.8,0-1.4-0.3-1.8-0.8s-0.6-1.3-0.7-2.1l0,0h5.9v-1c0-1.2-0.3-2.2-0.9-2.9C77.2,54.1,76.2,53.7,75,53.7z M77.1,57.5h-4.2l0,0
	c0.1-0.7,0.3-1.3,0.7-1.7S74.5,55,75,55c0.7,0,1.2,0.2,1.5,0.6c0.3,0.4,0.5,1,0.5,1.6V57.5z M82.4,55.9c0.4-0.6,1-0.9,1.8-0.9
	c0.6,0,1.1,0.2,1.5,0.6c0.4,0.4,0.6,0.9,0.6,1.4h1.5l0,0c0-0.9-0.3-1.7-1-2.3c-0.7-0.6-1.5-0.9-2.6-0.9c-1.3,0-2.3,0.4-3,1.3
	c-0.7,0.9-1,1.9-1,3.2v0.4c0,1.3,0.3,2.4,1,3.2c0.7,0.9,1.7,1.3,3,1.3c1,0,1.8-0.3,2.5-0.9c0.7-0.6,1.1-1.3,1-2.1l0,0h-1.5
	c0,0.5-0.2,0.9-0.6,1.2c-0.4,0.3-0.9,0.5-1.4,0.5c-0.9,0-1.5-0.3-1.9-0.9s-0.6-1.4-0.6-2.3v-0.3C81.8,57.3,82,56.5,82.4,55.9z
	 M88.7,58.4h4.1v-1.3h-4.1V58.4z M101.6,53.9H100v7.7h-4v-7.7h-1.6v9h6.8v3h1.6v-4.2h-1.1V53.9z M108,53.7c-1,0-2,0.4-2.7,1.3
	c-0.8,0.9-1.1,1.9-1.1,3.2v0.4c0,1.3,0.4,2.4,1.1,3.3s1.7,1.3,3,1.3c0.8,0,1.4-0.1,1.9-0.3c0.5-0.2,1-0.5,1.3-0.8l-0.6-1.1
	c-0.3,0.3-0.7,0.5-1.1,0.7c-0.4,0.2-0.9,0.2-1.5,0.2c-0.8,0-1.4-0.3-1.8-0.8s-0.6-1.3-0.7-2.1l0,0h5.9v-1c0-1.2-0.3-2.2-0.9-2.9
	C110.1,54.1,109.2,53.7,108,53.7z M110,57.5h-4.2l0,0c0.1-0.7,0.3-1.3,0.7-1.7s0.9-0.7,1.4-0.7c0.7,0,1.2,0.2,1.5,0.6
	c0.3,0.4,0.5,1,0.5,1.6V57.5z M119.2,57.8h-4v-3.9h-1.6v9h1.6v-3.8h4v3.8h1.6v-9h-1.6V57.8z M122.7,55.2h2.9v7.7h1.6v-7.7h3v-1.3
	h-7.6V55.2z M136.2,53.7c-0.6,0-1.1,0.1-1.5,0.3s-0.8,0.6-1.1,1l-0.3-1.2H132v12.5h1.6V62c0.3,0.4,0.7,0.7,1.1,0.8s0.9,0.3,1.5,0.3
	c1.1,0,2-0.4,2.6-1.2s0.9-1.8,0.9-3.2v-0.2c0-1.5-0.3-2.6-0.9-3.5C138.1,54.1,137.3,53.7,136.2,53.7z M138.1,58.7
	c0,0.9-0.2,1.6-0.6,2.2c-0.4,0.6-1,0.9-1.8,0.9c-0.5,0-0.9-0.1-1.2-0.3c-0.3-0.2-0.6-0.5-0.8-0.9v-4.4c0.2-0.4,0.5-0.7,0.8-0.9
	s0.7-0.3,1.2-0.3c0.8,0,1.4,0.3,1.8,1c0.4,0.7,0.6,1.5,0.6,2.5V58.7z M150.8,62.9h1.6v-9h-1.6V62.9z M145.9,57.3h-2.2v-3.4H142v9
	h3.9c1.1,0,1.9-0.3,2.5-0.8c0.6-0.5,0.9-1.2,0.9-2c0-0.8-0.3-1.5-0.9-2S146.9,57.3,145.9,57.3z M147.2,61.2
	c-0.3,0.3-0.7,0.4-1.3,0.4h-2.2v-3h2.2c0.6,0,1,0.2,1.3,0.5c0.3,0.3,0.4,0.7,0.4,1.1C147.6,60.6,147.4,60.9,147.2,61.2z M164.6,58.3
	c0.4-0.2,0.8-0.5,1-0.8s0.4-0.7,0.4-1.1c0-0.8-0.3-1.5-0.9-1.9c-0.6-0.5-1.4-0.7-2.5-0.7c-1,0-1.8,0.2-2.5,0.7
	c-0.7,0.5-1,1.1-0.9,1.9l0,0h1.6c0-0.4,0.2-0.7,0.5-1c0.4-0.3,0.8-0.4,1.3-0.4c0.6,0,1,0.1,1.3,0.4c0.3,0.3,0.4,0.6,0.4,1
	c0,0.4-0.1,0.7-0.4,1c-0.3,0.2-0.7,0.3-1.2,0.3h-1.6V59h1.6c0.6,0,1.1,0.1,1.3,0.3c0.3,0.2,0.4,0.6,0.4,1.1c0,0.4-0.2,0.8-0.5,1
	c-0.3,0.3-0.8,0.4-1.4,0.4c-0.6,0-1.1-0.2-1.4-0.5s-0.6-0.7-0.6-1.1h-1.6l0,0.1c0,0.9,0.3,1.6,1,2.1c0.7,0.5,1.5,0.7,2.5,0.7
	c1.1,0,1.9-0.2,2.6-0.7s1-1.1,1-2c0-0.5-0.1-0.9-0.4-1.3C165.5,58.7,165.1,58.4,164.6,58.3z M175.6,53.9h-5.9l-0.1,3.4
	c-0.1,1.2-0.2,2.1-0.5,2.7c-0.2,0.6-0.6,1.1-1.1,1.7h-0.7l0.2,3.9h1.5v-2.7h6.2v2.7h1.5l0.2-3.9h-1.2V53.9z M174,61.6h-4
	c0.4-0.5,0.6-1.1,0.9-1.8s0.4-1.6,0.4-2.6l0.1-1.9h2.7V61.6z M182.1,53.7c-1,0-2,0.4-2.7,1.3c-0.8,0.9-1.1,1.9-1.1,3.2v0.4
	c0,1.3,0.4,2.4,1.1,3.3c0.7,0.8,1.7,1.3,3,1.3c0.8,0,1.4-0.1,1.9-0.3s1-0.5,1.3-0.8l-0.6-1.1c-0.3,0.3-0.7,0.5-1.1,0.7
	c-0.4,0.2-0.9,0.2-1.5,0.2c-0.8,0-1.4-0.3-1.8-0.8s-0.6-1.3-0.7-2.1l0,0h5.9v-1c0-1.2-0.3-2.2-0.9-2.9
	C184.2,54.1,183.3,53.7,182.1,53.7z M184.1,57.5h-4.2l0,0c0.1-0.7,0.3-1.3,0.7-1.7s0.9-0.7,1.4-0.7c0.7,0,1.2,0.2,1.5,0.6
	c0.3,0.4,0.5,1,0.5,1.6V57.5z M189.4,55.9c0.4-0.6,1-0.9,1.8-0.9c0.6,0,1.1,0.2,1.5,0.6c0.4,0.4,0.6,0.9,0.6,1.4h1.5l0,0
	c0-0.9-0.3-1.7-1-2.3s-1.5-0.9-2.6-0.9c-1.3,0-2.3,0.4-3,1.3c-0.7,0.9-1,1.9-1,3.2v0.4c0,1.3,0.3,2.4,1,3.2c0.7,0.9,1.7,1.3,3,1.3
	c1,0,1.8-0.3,2.5-0.9s1.1-1.3,1-2.1l0,0h-1.5c0,0.5-0.2,0.9-0.6,1.2c-0.4,0.3-0.9,0.5-1.4,0.5c-0.9,0-1.5-0.3-1.9-0.9
	s-0.6-1.4-0.6-2.3v-0.3C188.9,57.3,189.1,56.5,189.4,55.9z M203.1,58.1c-0.6-0.5-1.4-0.8-2.5-0.8h-2.2v-3.4h-1.6v9h3.9
	c1.1,0,1.9-0.3,2.5-0.8c0.6-0.5,0.9-1.2,0.9-2C204,59.3,203.7,58.6,203.1,58.1z M202,61.2c-0.3,0.3-0.7,0.4-1.3,0.4h-2.2v-3h2.2
	c0.6,0,1,0.2,1.3,0.5c0.3,0.3,0.4,0.7,0.4,1.1C202.4,60.6,202.2,60.9,202,61.2z"/>
</svg>
