<svg id="Layer_1" enable-background="new 0 0 512 512" height="512" viewBox="0 0 512 512" width="512" xmlns="http://www.w3.org/2000/svg"><g><path fill="#fff" d="m466 168h-66v-76c0-19.851-16.149-36-36-36h-216c-19.851 0-36 16.149-36 36v76h-66c-25.364 0-46 20.636-46 46v196c0 25.364 20.636 46 46 46h98 224 98c25.364 0 46-20.636 46-46v-196c0-25.364-20.636-46-46-46zm-322-76c0-2.206 1.794-4 4-4h216c2.206 0 4 1.794 4 4v76h-224zm16 332v-28c0-2.206 1.794-4 4-4h184c2.206 0 4 1.794 4 4v28zm320-14c0 7.72-6.28 14-14 14h-82v-28c0-19.851-16.149-36-36-36h-184c-19.851 0-36 16.149-36 36v28h-82c-7.72 0-14-6.28-14-14v-196c0-7.72 6.28-14 14-14h82 256 82c7.72 0 14 6.28 14 14z"/><path fill="#fff" d="m112.02 280c-8.836 0-16.005-7.164-16.005-16s7.158-16 15.995-16h.01c8.836 0 16 7.164 16 16s-7.164 16-16 16z"/></g></svg>